<svg xmlns="http://www.w3.org/2000/svg" id="Layer_2" data-name="Layer 2" viewBox="0 0 98.26 113.46"><g id="Layer_1-2" data-name="Layer 1"><path d="M19.75 65.05v-48.1L2.69 26.8 0 28.36v25.29l3.85 2.21zm26.68-11.62v-28.4l1.21-.69 4.2-2.43 17.63-10.17L49.14 0 25.16 13.83v51.88l17.06-9.85z"/><path d="m46.43 81.83 1.21-.69 4.2-2.43 14.98-8.65-14.98-8.64-4.2-2.44-1.21.69-17.99 10.39-3.28 1.89-2.13 1.23-3.28-1.9-2.12-1.22L0 59.88v25.2l20.39 11.79 4.77-2.76 17.06-9.85zm6.61 2.43-1.2.69-4.2 2.43-1.21.69L25.8 99.99l23.34 13.47 21.83-12.61 2.15-1.24V72.66l-.9.52zm25.48-67.29-3.65-2.12-1.75 1.01-20.08 11.61 19.18 11.07.9.52 4.51 2.6.89.52 18.3 10.56 1.44.83V28.36z"/><path d="m91.41 55.86-12.89-7.44-5.4-3.12-.9-.52-5.4-3.12-14.98-8.64v22.15l1.2.69 19.18 11.08.9.51 4.51 2.61.89.52v25.91l17.03-9.84 2.71-1.57V59.82l-1.45-.84z"/></g></svg>