<?xml version="1.0" encoding="UTF-8"?>
<svg version="1.0" xmlns="http://www.w3.org/2000/svg" viewBox="0 0 98.26 113.46" preserveAspectRatio="xMidYMid meet">
  <g transform="translate(0,113.46) scale(0.1,-0.1)" fill="#000000" stroke="none">
    <path d="M197 650 l0 -481 -171 99 -98 56 0 253 385 220 0 -481 -171 99 -98 56 0 253 385 220 0 -481 -171 99 -98 56 0 253 385 220 0 -481 -171 99 -98 56 0 253 385 220"/>
    <path d="M464 534 l0 -283 -12 -7 -38 -22 -176 -102 -203 117 0 518 172 -99 98 -56 0 -253 -159 92 -38 22 0 481 171 -99 98 -56 0 -253 -159 92 -38 22 0 481 171 -99 98 -56 0 -253 -159 92 -38 22 0 481 171 -99 98 -56 0 -253"/>
    <path d="M464 818 l0 -283 -12 -7 -38 -22 -159 -92 -159 92 -38 22 -22 13 0 481 204 -117 51 -30 0 -481 -159 92 -38 22 -22 13 0 481 204 -117 51 -30 0 -481 -159 92 -38 22 -22 13 0 481 204 -117 51 -30"/>
    <path d="M530 842 l-12 7 0 481 204 -117 51 -30 0 -481 -159 92 -38 22 -22 13 0 481 171 -99 98 -56 0 -253 -385 -220 0 481 171 -99 98 -56 0 -253"/>
    <path d="M785 169 l-38 -22 -176 -102 -203 117 0 518 192 -111 51 -30 0 -481 -159 92 -38 22 -22 13 0 481 204 -117 51 -30 0 -481 -14 8 0 253 144 83 144 -83 0 -253 -144 -83"/>
    <path d="M914 558 l-128 -74 -51 -30 -55 -32 -38 -22 -176 -102 0 518 192 -111 51 -30 0 -481 -159 92 -38 22 -22 13 0 481 204 -117 51 -30 0 -481 -14 8 0 253 178 103 178 -103 0 -253 -98 -57"/>
  </g>
</svg>
